<svg xmlns="http://www.w3.org/2000/svg" viewBox="0 0 64 64" id="lamp"><g><g><path fill="none" stroke="#434a54" stroke-linecap="round" stroke-linejoin="round" stroke-width="2" d="M23 51v-4.56M43.87 40.83A7.26 7.26 0 0041 46.44M35 54.46V57a2 2 0 01-2 2h-2a2 2 0 01-2-2v-2.54a4 4 0 002 .54h2a4 4 0 002-.54z"></path><path fill="none" stroke="#434a54" stroke-linecap="round" stroke-linejoin="round" stroke-width="2" d="M37 47v4a4 4 0 01-4 4h-2a4 4 0 01-4-4v-4zM47 25.82a15 15 0 01-5.63 11.89A11.24 11.24 0 0037 46.44V47H27v-.56a10.65 10.65 0 00-4.08-8.5A15 15 0 1147 25.82zM30 47V35M34 47V35M30 35l-6-6M34 35l6-6M26 15.61A11.94 11.94 0 0132 14M20 26a12 12 0 012.57-7.42M32 8V4M19.27 13.27l-2.83-2.83M14 26h-4M50 26h4M44.73 13.27l2.83-2.83M27 50h10"></path><path fill="none" d="M0 0h64v64H0z"></path></g></g></svg>